# xmcd
# Track frame offsets:
# 150
# 16946
# 38869
# 51714
# 63418
# 87369
# 102572
# 124112
# 150162
# 163197
# 177433
# 192691
# 215125
#
# Disc length: 3088 seconds
# Revision: 0
# Processed by: cddbd v1.5.1PL0 Copyright (c) Steve Scherf et al.
# Submitted via: VisiTrax 2.9.10.228 - For more info visit www.synapsa.com
#
DISCID=bf0c0e0d
DTITLE=Christie.Carinda - BLUE MAMMA
DYEAR=2005
DGENRE=Blues
TTITLE0=Mumma
TTITLE1=He's Dancin
TTITLE2=I'll Carry You
TTITLE3=Running Water
TTITLE4=What's To Come
TTITLE5=Believe
TTITLE6=Loving You Too Long
TTITLE7=Contemplating Life
TTITLE8=These Days
TTITLE9=If Ur Happy
TTITLE10=Promises
TTITLE11=She Just Cries
TTITLE12=Home
EXTD=Suitable also for Folk
EXTT0=
EXTT1=
EXTT2=
EXTT3=
EXTT4=
EXTT5=
EXTT6=
EXTT7=
EXTT8=
EXTT9=
EXTT10=
EXTT11=
EXTT12=
PLAYORDER=
